HIERARCHY
ROOT Hip
{
  OFFSET 0.0 0.0 0.0
  CHANNELS 6 Xposition Yposition Zposition Xrotation Yrotation Zrotation
  JOINT LowerSpine
  {
    OFFSET 0.0 0.061367 -0.03653
    CHANNELS 3 Xrotation Yrotation Zrotation
    JOINT MiddleSpine
    {
      OFFSET 0.0 0.056002 0.002633
      CHANNELS 3 Xrotation Yrotation Zrotation
      JOINT Chest
      {
        OFFSET 0.0 0.069296 -0.013882
        CHANNELS 3 Xrotation Yrotation Zrotation
        JOINT Neck
        {
          OFFSET 0.0 0.156156 -0.002923
          CHANNELS 3 Xrotation Yrotation Zrotation
          JOINT Head
          {
            OFFSET 0.0 0.088183 0.023986
            CHANNELS 3 Xrotation Yrotation Zrotation
            End Site
            {
              OFFSET 1e-06 0.123215 0.003678
            }
          }
        }
        JOINT LClavicle
        {
          OFFSET 0.014189 0.150698 0.046467
          CHANNELS 3 Xrotation Yrotation Zrotation
          JOINT LShoulder
          {
            OFFSET 0.082893 0.021616 -0.034976
            CHANNELS 3 Xrotation Yrotation Zrotation
            JOINT LForearm
            {
              OFFSET 0.195645 -0.000695 -0.001695
              CHANNELS 3 Xrotation Yrotation Zrotation
              JOINT LHand
              {
                OFFSET 0.163209 0.000474 -0.000977
                CHANNELS 3 Xrotation Yrotation Zrotation
                End Site
                {
                  OFFSET 0.0 0.006864 0.0
                }
              }
            }
          }
        }
        JOINT RClavicle
        {
          OFFSET -0.014189 0.150698 0.046467
          CHANNELS 3 Xrotation Yrotation Zrotation
          JOINT RShoulder
          {
            OFFSET -0.082908 0.021619 -0.034982
            CHANNELS 3 Xrotation Yrotation Zrotation
            JOINT RForearm
            {
              OFFSET -0.195645 -0.000695 -0.001695
              CHANNELS 3 Xrotation Yrotation Zrotation
              JOINT RHand
              {
                OFFSET -0.163209 0.000474 -0.000977
                CHANNELS 3 Xrotation Yrotation Zrotation
                End Site
                {
                  OFFSET 0.0 0.006864 0.0
                }
              }
            }
          }
        }
      }
    }
  }
  JOINT RThigh
  {
    OFFSET -0.072558 0.02774 -0.005953
    CHANNELS 3 Xrotation Yrotation Zrotation
    JOINT RShin
    {
      OFFSET -0.005253 -0.285537 0.0
      CHANNELS 3 Xrotation Yrotation Zrotation
      JOINT RFoot
      {
        OFFSET 0.0 -0.28038 0.0
        CHANNELS 3 Xrotation Yrotation Zrotation
        JOINT RToe
        {
          OFFSET 0.0 -0.030816 0.064441
          CHANNELS 3 Xrotation Yrotation Zrotation
          End Site
          {
            OFFSET 0.0 0.0 0.043231
          }
        }
      }
    }
  }
  JOINT LThigh
  {
    OFFSET 0.072557 0.027741 -0.005953
    CHANNELS 3 Xrotation Yrotation Zrotation
    JOINT LShin
    {
      OFFSET 0.005253 -0.285539 0.0
      CHANNELS 3 Xrotation Yrotation Zrotation
      JOINT LFoot
      {
        OFFSET 0.0 -0.28038 0.0
        CHANNELS 3 Xrotation Yrotation Zrotation
        JOINT LToe
        {
          OFFSET 0.0 -0.030816 0.064441
          CHANNELS 3 Xrotation Yrotation Zrotation
          End Site
          {
            OFFSET 0.0 0.0 0.043231
          }
        }
      }
    }
  }
}
MOTION
Frames: 18
Frame Time: 0.03333333333333333
-0.066618 0.536413 -0.02648 -9.079798 1.25879 -0.624673 6.030482 -0.134669 -0.916812 -1.579114 2.923723 2.172206 -3.765726 9.606722 5.321289 5.339281 1.567374 1.460852 0.079629 -0.037504 -0.012863 -1.05296 1.389705 -0.355299 14.096624 -16.372232 -62.266136 15.133707 -65.107147 16.6332 0.173895 0.308293 -0.206205 -1.961104 -1.5096 -8.603194 -67.713104 40.971527 47.942963 140.783478 59.876812 -179.359177 -0.090088 -0.126857 -0.060927 -8.093994 -1.528389 -1.110654 32.94751 -1.94694 6.570386 -5.816716 0.918162 0.061022 -0.228851 0.382838 0.144015 0.155434 4.639313 10.684098 19.354218 0.722931 -0.812801 -2.852172 2.124803 1.917507 0.100539 -0.190396 -0.033266 
-0.066409 0.535639 -0.02661 -9.162163 1.372766 -0.539429 6.027214 -0.139444 -0.919022 -1.567163 2.930449 2.164224 -3.77963 9.665473 5.286472 5.313269 1.563197 1.462156 0.080115 -0.037611 -0.01349 -1.05349 1.369587 -0.310192 14.279366 -16.383331 -62.16634 15.334765 -65.021774 16.630466 0.175016 0.309457 -0.208034 -1.959656 -1.522756 -8.651049 -67.629532 41.33469 47.852516 140.844299 59.999279 -179.347382 -0.091664 -0.127135 -0.061419 -8.145414 -1.564164 -1.121 33.180626 -1.919145 6.564635 -5.812863 0.918244 0.058111 -0.225996 0.386227 0.14454 0.096504 4.572323 10.748702 19.533773 0.674591 -0.87607 -2.833131 2.097989 1.901992 0.102107 -0.19286 -0.034353 
-0.066194 0.534917 -0.026655 -9.235358 1.508628 -0.454326 6.022196 -0.142508 -0.917185 -1.549141 2.940969 2.152332 -3.783276 9.726936 5.239937 5.284826 1.555664 1.458807 0.080557 -0.037545 -0.013943 -1.054075 1.344993 -0.266514 14.449347 -16.386179 -62.035542 15.539079 -64.975044 16.657785 0.175576 0.309837 -0.208958 -1.958926 -1.532244 -8.682074 -67.521873 41.656609 47.800255 140.960587 60.064384 -179.348221 -0.092682 -0.126993 -0.061825 -8.181962 -1.583868 -1.140001 33.372978 -1.881979 6.552251 -5.809901 0.916493 0.055228 -0.222411 0.389749 0.145019 0.071474 4.516745 10.805363 19.667891 0.632712 -0.948968 -2.815312 2.070743 1.887387 0.103307 -0.194613 -0.035395 
-0.065891 0.53419 -0.026639 -9.292716 1.65175 -0.387588 6.015657 -0.143322 -0.909186 -1.524181 2.954049 2.139962 -3.77514 9.77909 5.17868 5.254672 1.546857 1.450219 0.081103 -0.039371 -0.014322 -1.052204 1.313058 -0.228161 14.568361 -16.391953 -61.895737 15.678614 -64.92514 16.693781 0.176134 0.310398 -0.209649 -1.960179 -1.538144 -8.692145 -67.419029 41.902035 47.813644 141.100662 60.089565 -179.358841 -0.094363 -0.126972 -0.062369 -8.214293 -1.590119 -1.158301 33.544792 -1.84708 6.52641 -5.802753 0.912011 0.048749 -0.21857 0.394402 0.146413 0.07965 4.476013 10.860623 19.747623 0.602269 -1.029402 -2.798859 2.044154 1.876826 0.105028 -0.197095 -0.037045 
-0.065509 0.533445 -0.02656 -9.336428 1.817422 -0.319157 6.004312 -0.144437 -0.898398 -1.492813 2.968798 2.123618 -3.760951 9.849295 5.111942 5.221128 1.536682 1.434585 0.081565 -0.041387 -0.014565 -1.052476 1.275481 -0.201348 14.676859 -16.369455 -61.742027 15.786407 -64.889397 16.740377 0.176151 0.310178 -0.209736 -1.962462 -1.546115 -8.675856 -67.289307 42.056561 47.894924 141.294174 60.047443 -179.365891 -0.096474 -0.126287 -0.062821 -8.245619 -1.583543 -1.187708 33.686161 -1.812041 6.495973 -5.793828 0.905027 0.042405 -0.214892 0.397971 0.14772 0.09217 4.438879 10.903752 19.798258 0.57699 -1.112956 -2.784111 2.017882 1.865187 0.106519 -0.199157 -0.038727 
-0.065087 0.532686 -0.026282 -9.376165 2.023199 -0.246614 5.987873 -0.144742 -0.884947 -1.457465 2.983412 2.098953 -3.728961 9.930252 5.038407 5.182657 1.523703 1.414667 0.081673 -0.043121 -0.014778 -1.056633 1.235041 -0.184296 14.791569 -16.319172 -61.552258 15.880868 -64.883224 16.780815 0.174806 0.308395 -0.208011 -1.964814 -1.541461 -8.630908 -67.100517 42.137833 48.02158 141.575058 59.902336 -179.398071 -0.097335 -0.125011 -0.06301 -8.242694 -1.551805 -1.228146 33.797211 -1.762012 6.459449 -5.793513 0.897146 0.037835 -0.211107 0.399271 0.148367 0.129114 4.406947 10.945144 19.821125 0.562993 -1.195689 -2.769301 1.994058 1.852815 0.107199 -0.199144 -0.039887 
-0.06463 0.531855 -0.025921 -9.40979 2.238333 -0.17762 5.967874 -0.144845 -0.869103 -1.418562 2.99936 2.069824 -3.691344 10.011367 4.953541 5.139698 1.508424 1.391031 0.081694 -0.04447 -0.014794 -1.061333 1.190741 -0.173289 14.904121 -16.255255 -61.332973 15.965339 -64.899254 16.819963 0.172861 0.305818 -0.205342 -1.96775 -1.531431 -8.569218 -66.86953 42.181465 48.189606 141.923126 59.685875 -179.447479 -0.097434 -0.123734 -0.063051 -8.228094 -1.509936 -1.277958 33.882706 -1.709401 6.421856 -5.795511 0.888638 0.033505 -0.207066 0.400109 0.148869 0.177077 4.37314 10.991782 19.826891 0.553974 -1.286073 -2.754444 1.970786 1.839975 0.10752 -0.198432 -0.040907 
-0.064145 0.530939 -0.02556 -9.43501 2.452105 -0.116203 5.944589 -0.145033 -0.851517 -1.37727 3.016012 2.037493 -3.65265 10.087073 4.858544 5.093338 1.491402 1.364152 0.081691 -0.045502 -0.014575 -1.066655 1.143173 -0.167937 15.010504 -16.176744 -61.0909 16.036137 -64.933861 16.85615 0.170523 0.302634 -0.202002 -1.97164 -1.51841 -8.492207 -66.596794 42.180935 48.392044 142.32135 59.407963 -179.507843 -0.097001 -0.122494 -0.06295 -8.212167 -1.466717 -1.335389 33.944847 -1.660849 6.38558 -5.796933 0.879323 0.028957 -0.202865 0.400717 0.149309 0.223455 4.335978 11.043629 19.823902 0.548278 -1.382736 -2.73975 1.948614 1.82715 0.107591 -0.197251 -0.041802 
-0.063612 0.52993 -0.025264 -9.444152 2.661956 -0.068176 5.916302 -0.145641 -0.832524 -1.336033 3.031634 2.003688 -3.617247 10.148652 4.754108 5.043272 1.473154 1.334677 0.081726 -0.046438 -0.014213 -1.07143 1.095131 -0.167946 15.10921 -16.073479 -60.836491 16.098211 -64.99337 16.898832 0.168028 0.299105 -0.198352 -1.97434 -1.505911 -8.401171 -66.287849 42.116791 48.610241 142.732681 59.102371 -179.572021 -0.09606 -0.121636 -0.062722 -8.202471 -1.428021 -1.398863 33.982441 -1.61973 6.35174 -5.795225 0.869451 0.024089 -0.198525 0.401064 0.149639 0.254859 4.287338 11.092846 19.818888 0.542229 -1.47725 -2.727023 1.929031 1.815177 0.107405 -0.195679 -0.042482 
-0.063069 0.528841 -0.025071 -9.434975 2.854024 -0.036911 5.883063 -0.147493 -0.814742 -1.297551 3.045486 1.968282 -3.592333 10.18411 4.647154 4.990045 1.453909 1.304816 0.081758 -0.046474 -0.013694 -1.076025 1.049585 -0.168811 15.203134 -15.939372 -60.572502 16.153887 -65.09388 16.954931 0.165333 0.295104 -0.194384 -1.975178 -1.49385 -8.294879 -65.935081 41.972118 48.835381 143.149338 58.760227 -179.637909 -0.09378 -0.121328 -0.062297 -8.207379 -1.403267 -1.467019 34.009346 -1.59123 6.327855 -5.788612 0.86046 0.020609 -0.193756 0.401304 0.149595 0.260248 4.224635 11.136668 19.828974 0.5339 -1.566208 -2.713647 1.911718 1.803123 0.106731 -0.193433 -0.042698 
-0.06257 0.527732 -0.025069 -9.417063 3.008315 -0.026593 5.84704 -0.150731 -0.798995 -1.263767 3.056425 1.930613 -3.573141 10.193615 4.536248 4.940301 1.433879 1.275813 0.081684 -0.045534 -0.012902 -1.08017 1.009665 -0.17114 15.276598 -15.780039 -60.311771 16.199343 -65.211708 17.027861 0.162221 0.290241 -0.189816 -1.974246 -1.479577 -8.174217 -65.538658 41.718037 49.082344 143.563782 58.385094 -179.701874 -0.090465 -0.120903 -0.061734 -8.221913 -1.397707 -1.532733 34.011707 -1.579523 6.311241 -5.771303 0.850158 0.018472 -0.188911 0.40087 0.148847 0.247118 4.151893 11.167837 19.846498 0.525334 -1.643719 -2.702652 1.901146 1.792865 0.105406 -0.190181 -0.042378 
-0.062121 0.526659 -0.025352 -9.374433 3.127199 -0.038657 5.808191 -0.154022 -0.784605 -1.235398 3.063303 1.892333 -3.561179 10.162804 4.425756 4.89407 1.413996 1.24711 0.081611 -0.043503 -0.011835 -1.084949 0.974872 -0.175154 15.332478 -15.582417 -60.057682 16.245831 -65.36853 17.110937 0.158854 0.284854 -0.184777 -1.971314 -1.464458 -8.035474 -65.079964 41.330353 49.323734 143.964462 57.974979 -179.765289 -0.086176 -0.120591 -0.06096 -8.258056 -1.411288 -1.59702 33.985371 -1.585966 6.30342 -5.747786 0.838847 0.016837 -0.184336 0.39944 0.147518 0.189707 4.066682 11.182199 19.86101 0.520727 -1.706879 -2.69282 1.897668 1.784716 0.103584 -0.18618 -0.041546 
-0.061849 0.525639 -0.025952 -9.334058 3.164367 -0.061292 5.771409 -0.158449 -0.774677 -1.213483 3.066821 1.852173 -3.54841 10.086516 4.320517 4.854637 1.394666 1.22204 0.081364 -0.039825 -0.01031 -1.089366 0.942728 -0.172576 15.337115 -15.338932 -59.8111 16.255373 -65.551773 17.189167 0.155054 0.27874 -0.178851 -1.967081 -1.440291 -7.882663 -64.539612 40.792439 49.528053 144.329498 57.538654 -179.845566 -0.080293 -0.119614 -0.059689 -8.325357 -1.451919 -1.651129 33.941521 -1.606052 6.302237 -5.710296 0.829467 0.019283 -0.179087 0.396964 0.145393 0.14028 3.992067 11.179365 19.846876 0.531558 -1.752248 -2.685587 1.893722 1.777586 0.101124 -0.180712 -0.039836 
-0.061742 0.524798 -0.026938 -9.278702 3.120598 -0.105188 5.735507 -0.16409 -0.76914 -1.20042 3.065781 1.810318 -3.530241 9.958047 4.224519 4.826427 1.375471 1.200239 0.080738 -0.034871 -0.008235 -1.096183 0.916906 -0.164518 15.277139 -15.052252 -59.580177 16.242041 -65.774918 17.269772 0.15068 0.2717 -0.171821 -1.962858 -1.407 -7.705246 -63.889454 40.051838 49.675694 144.636108 57.049549 -179.934631 -0.072757 -0.117778 -0.057842 -8.435288 -1.525463 -1.694839 33.867352 -1.645555 6.309566 -5.656726 0.820016 0.025321 -0.173167 0.392881 0.142348 0.079459 3.939231 11.150625 19.795204 0.559402 -1.769684 -2.682658 1.893664 1.773122 0.097834 -0.173513 -0.037319 
-0.06178 0.524279 -0.028319 -9.180306 3.006426 -0.182413 5.698714 -0.169914 -0.766266 -1.198186 3.059528 1.769782 -3.513257 9.765206 4.142718 4.809067 1.356983 1.180111 0.079859 -0.028613 -0.005728 -1.104808 0.899794 -0.154047 15.171375 -14.716739 -59.379528 16.263466 -66.082825 17.398869 0.145921 0.264009 -0.164062 -1.957812 -1.371699 -7.499289 -63.118195 39.060238 49.767517 144.873474 56.499184 179.981659 -0.064 -0.115585 -0.055591 -8.586945 -1.630583 -1.729389 33.743061 -1.713162 6.329451 -5.591033 0.80945 0.033183 -0.167571 0.386979 0.13839 -0.033985 3.893296 11.089792 19.706402 0.601309 -1.759634 -2.682802 1.904074 1.773105 0.093789 -0.165317 -0.034267 
-0.062001 0.524197 -0.030073 -9.027782 2.829498 -0.290798 5.660658 -0.179212 -0.769095 -1.207134 3.045701 1.73684 -3.489448 9.521691 4.085882 4.806888 1.340512 1.163751 0.078523 -0.02128 -0.002878 -1.115443 0.891716 -0.138566 15.006018 -14.339357 -59.242718 16.284536 -66.477844 17.57102 0.14105 0.256066 -0.156222 -1.95013 -1.335308 -7.261962 -62.244308 37.733669 49.804726 144.998505 55.922661 179.91835 -0.054833 -0.112894 -0.053121 -8.799287 -1.753258 -1.757454 33.546421 -1.810814 6.36469 -5.514264 0.798767 0.04433 -0.16223 0.378542 0.133762 -0.199241 3.862691 10.989158 19.560371 0.658931 -1.716783 -2.691469 1.926461 1.775758 0.088996 -0.156729 -0.030941 
-0.062666 0.524677 -0.032067 -8.81678 2.569287 -0.413976 5.627555 -0.190868 -0.779556 -1.230517 3.024569 1.705994 -3.457991 9.199895 4.064651 4.818384 1.32603 1.151704 0.07646 -0.010168 0.000519 -1.129298 0.898747 -0.107649 14.781773 -13.943581 -59.161358 16.327623 -66.974457 17.774782 0.135534 0.247153 -0.14773 -1.939949 -1.299636 -6.984939 -61.234989 36.108501 49.790268 145.006317 55.270554 179.875916 -0.043117 -0.109335 -0.049926 -9.112357 -1.886955 -1.769027 33.327736 -1.932448 6.423286 -5.432989 0.79084 0.061612 -0.156847 0.36693 0.127678 -0.43199 3.866064 10.851632 19.363554 0.755442 -1.642174 -2.710083 1.962782 1.781802 0.082421 -0.146249 -0.026625 
-0.063903 0.525886 -0.033897 -8.545774 2.222641 -0.563725 5.602077 -0.202213 -0.793246 -1.262173 2.999125 1.682506 -3.40337 8.79405 4.075814 4.843084 1.314564 1.14181 0.073665 0.002768 0.004185 -1.149801 0.915244 -0.063972 14.518329 -13.551815 -59.152336 16.394032 -67.580437 18.012251 0.129413 0.237443 -0.138816 -1.936318 -1.261009 -6.664744 -60.100754 34.064098 49.693817 144.833298 54.572388 179.878601 -0.030768 -0.103358 -0.046222 -9.483138 -2.024959 -1.723257 33.023979 -2.086478 6.485059 -5.339461 0.793353 0.085943 -0.153391 0.351583 0.120747 -0.693368 3.931084 10.689769 19.104416 0.909053 -1.544179 -2.747043 2.018153 1.795537 0.074161 -0.134359 -0.021541 
